<?xml version="1.0" standalone="no"?>
<!DOCTYPE svg PUBLIC "-//W3C//DTD SVG 20010904//EN"
 "http://www.w3.org/TR/2001/REC-SVG-20010904/DTD/svg10.dtd">
<svg version="1.0" xmlns="http://www.w3.org/2000/svg"
 width="1080.000000pt" height="1080.000000pt" viewBox="0 0 1080.000000 1080.000000"
 preserveAspectRatio="xMidYMid meet">
<metadata>
Created by potrace 1.14, written by Peter Selinger 2001-2017
</metadata>
<g transform="translate(0.000000,1080.000000) scale(0.100000,-0.100000)"
fill="#000000" stroke="none">
<path d="M3070 10789 c-429 -26 -824 -129 -1218 -319 -339 -164 -593 -342
-861 -604 -592 -580 -928 -1315 -981 -2146 -13 -219 -14 -4447 0 -4655 30
-456 131 -835 330 -1240 174 -356 376 -633 656 -905 471 -456 1030 -746 1675
-869 272 -52 222 -51 2733 -51 1534 0 2369 4 2437 10 934 94 1754 554 2309
1295 332 445 528 912 622 1490 l22 140 4 2370 c2 1724 0 2407 -8 2505 -81 952
-576 1819 -1358 2379 -514 367 -1103 569 -1752 601 -221 11 -4430 10 -4610 -1z
m815 -2605 c323 -39 581 -117 880 -264 216 -107 405 -230 568 -372 l67 -60 68
60 c324 283 769 504 1202 596 267 57 615 75 870 47 509 -57 1016 -267 1420
-588 201 -160 430 -411 580 -633 483 -719 606 -1650 329 -2483 -362 -1090
-1347 -1849 -2473 -1906 -379 -19 -761 38 -1102 164 -102 38 -335 148 -437
207 l-57 33 -202 -203 -202 -202 -202 201 -201 201 -80 -46 c-602 -347 -1349
-449 -2032 -276 -858 216 -1569 848 -1899 1685 -242 616 -261 1316 -52 1945
284 855 951 1516 1805 1790 357 114 765 151 1150 104z"/>
<path d="M3320 7924 c-328 -39 -572 -110 -845 -244 -276 -135 -476 -281 -695
-506 -69 -71 -153 -166 -188 -211 -269 -355 -435 -742 -509 -1188 -26 -158
-26 -612 0 -770 99 -597 368 -1103 802 -1505 384 -356 897 -587 1419 -640 170
-18 497 -8 649 19 259 46 455 109 690 223 81 39 147 74 147 77 0 4 -87 93
-194 200 l-193 193 -114 -45 c-441 -176 -905 -191 -1349 -44 -695 230 -1202
824 -1335 1567 -22 125 -31 436 -16 566 44 376 184 724 410 1019 64 85 232
256 321 328 730 590 1771 582 2492 -20 43 -36 80 -64 82 -62 2 2 16 24 31 49
43 69 161 227 222 297 30 35 53 67 51 72 -7 19 -168 146 -281 222 -285 189
-609 317 -958 379 -100 18 -170 23 -364 25 -132 2 -256 1 -275 -1z"/>
<path d="M6975 7920 c-471 -53 -942 -255 -1305 -558 -198 -165 -414 -413 -536
-615 -33 -55 -45 -83 -38 -92 5 -7 34 -48 65 -91 74 -103 149 -235 196 -345
34 -80 53 -108 53 -78 0 20 107 234 158 317 233 374 587 668 987 817 640 239
1344 133 1890 -284 85 -64 256 -232 328 -321 231 -287 384 -641 432 -1009 17
-125 19 -392 5 -511 -64 -516 -314 -980 -704 -1307 -391 -328 -913 -497 -1406
-455 -227 20 -450 75 -636 157 -31 14 -62 25 -68 25 -21 0 -389 -377 -381
-390 13 -20 279 -146 403 -190 134 -48 303 -90 459 -117 155 -26 581 -26 736
0 425 72 789 226 1122 476 127 96 334 297 438 426 256 317 436 698 517 1090
68 330 67 734 -1 1054 -86 401 -261 769 -516 1086 -104 129 -311 330 -438 426
-324 243 -681 397 -1090 470 -95 17 -170 22 -355 24 -129 2 -271 -1 -315 -5z"/>
<path d="M3330 7115 c-719 -99 -1292 -643 -1447 -1374 -25 -114 -27 -146 -27
-346 -1 -191 2 -235 22 -334 140 -691 658 -1226 1328 -1371 365 -79 759 -28
1098 142 477 239 809 677 923 1217 23 112 27 150 27 331 1 209 -6 276 -46 435
-99 398 -334 748 -662 989 -349 256 -791 369 -1216 311z m515 -579 c253 -67
496 -234 648 -448 259 -363 293 -844 89 -1242 -283 -551 -955 -786 -1509 -526
-319 149 -555 435 -642 777 -100 393 6 814 280 1107 164 175 376 295 614 346
135 29 381 23 520 -14z"/>
<path d="M3375 6283 c-334 -71 -603 -338 -686 -679 -32 -130 -30 -304 4 -436
158 -606 847 -874 1357 -528 165 112 288 282 355 490 24 72 28 107 32 230 6
159 -10 253 -62 382 -111 272 -363 484 -647 542 -96 20 -260 19 -353 -1z m90
-527 c28 -13 58 -33 69 -44 l19 -21 38 33 c93 79 252 74 342 -12 53 -50 72
-99 72 -187 0 -72 -3 -86 -33 -141 -41 -75 -162 -198 -290 -294 -133 -100
-118 -97 -205 -37 -165 114 -302 249 -348 345 -27 55 -35 148 -19 207 16 56
76 126 132 153 62 30 157 29 223 -2z"/>
<path d="M7057 7119 c-576 -67 -1089 -434 -1342 -963 -111 -233 -161 -435
-172 -696 -28 -687 344 -1323 953 -1628 404 -203 871 -233 1298 -85 463 160
843 525 1032 991 149 367 163 818 38 1201 -254 775 -1015 1272 -1807 1180z
m370 -559 c640 -104 1075 -724 962 -1374 -105 -601 -663 -1032 -1255 -966
-523 57 -931 437 -1030 958 -22 115 -22 319 0 435 90 473 446 839 911 937 102
21 311 26 412 10z"/>
<path d="M7115 6293 c-281 -39 -554 -250 -678 -522 -110 -244 -103 -551 18
-791 221 -437 738 -615 1172 -405 501 243 663 892 338 1350 -96 135 -252 258
-405 318 -124 49 -306 69 -445 50z m498 -797 c88 -36 90 -168 3 -210 -29 -14
-79 -16 -365 -16 -351 0 -374 3 -415 48 -10 12 -21 41 -23 65 -4 36 -1 48 23
76 15 18 37 37 48 41 12 5 173 9 359 9 264 1 345 -2 370 -13z"/>
<path d="M5355 4559 c-119 -278 -362 -585 -612 -774 l-93 -70 375 -375 375
-375 375 375 375 375 -93 70 c-250 189 -493 496 -612 774 -22 50 -42 91 -45
91 -3 0 -23 -41 -45 -91z"/>
</g>
</svg>
